<?xml version="1.0" encoding="UTF-8"?>
<svg version="1.1" xmlns="http://www.w3.org/2000/svg" width="225" height="225">
<path d="M0 0 C74.25 0 148.5 0 225 0 C225 74.25 225 148.5 225 225 C150.75 225 76.5 225 0 225 C0 150.75 0 76.5 0 0 Z " fill="#FEFEFE" transform="translate(0,0)"/>
<path d="M0 0 C1.39465956 1.18558811 2.77090812 2.39328184 4.125 3.625 C4.75019531 4.17027344 5.37539062 4.71554688 6.01953125 5.27734375 C15.22444306 13.80041024 20.35172919 25.32729606 21.28515625 37.7578125 C21.72635762 49.68943217 18.18161046 59.51940205 12.125 69.625 C11.44490001 70.95153166 10.77299894 72.28249503 10.125 73.625 C11.115 75.11 11.115 75.11 12.125 76.625 C9.9375 79.1875 9.9375 79.1875 7.125 81.625 C6.36058594 81.44324219 5.59617187 81.26148438 4.80859375 81.07421875 C1.02903265 80.44154113 -0.46019434 81.81536457 -3.625 83.875 C-11.66507359 89.07740056 -19.03129603 91.19958636 -28.5625 91.125 C-29.86852173 91.11533203 -29.86852173 91.11533203 -31.20092773 91.10546875 C-45.75935782 90.69782734 -57.67204883 84.3934105 -67.6875 73.875 C-77.64441797 61.71607133 -80.25500336 47.85444884 -78.875 32.625 C-76.40381597 18.96689906 -69.1215525 7.71035936 -57.875 -0.375 C-40.00813995 -11.16746777 -17.35864289 -12.8593291 0 0 Z " fill="#FBFCFB" transform="translate(116.875,52.375)"/>
<path d="M0 0 C1.39465956 1.18558811 2.77090812 2.39328184 4.125 3.625 C4.75019531 4.17027344 5.37539062 4.71554688 6.01953125 5.27734375 C15.22444306 13.80041024 20.35172919 25.32729606 21.28515625 37.7578125 C21.72635762 49.68943217 18.18161046 59.51940205 12.125 69.625 C11.44490001 70.95153166 10.77299894 72.28249503 10.125 73.625 C11.115 75.11 11.115 75.11 12.125 76.625 C9.9375 79.1875 9.9375 79.1875 7.125 81.625 C6.36058594 81.44324219 5.59617187 81.26148438 4.80859375 81.07421875 C1.02903265 80.44154113 -0.46019434 81.81536457 -3.625 83.875 C-11.66507359 89.07740056 -19.03129603 91.19958636 -28.5625 91.125 C-29.86852173 91.11533203 -29.86852173 91.11533203 -31.20092773 91.10546875 C-45.75935782 90.69782734 -57.67204883 84.3934105 -67.6875 73.875 C-77.64441797 61.71607133 -80.25500336 47.85444884 -78.875 32.625 C-76.40381597 18.96689906 -69.1215525 7.71035936 -57.875 -0.375 C-40.00813995 -11.16746777 -17.35864289 -12.8593291 0 0 Z M-62.98828125 16.08984375 C-64.81993186 18.55100575 -66.21458548 20.9363937 -67.5625 23.6875 C-67.97886719 24.52410156 -68.39523438 25.36070313 -68.82421875 26.22265625 C-72.24819988 34.05071721 -72.23178526 45.45528594 -69.6875 53.5625 C-69.12291278 54.9336404 -68.5182748 56.28896772 -67.875 57.625 C-67.38193359 58.72521484 -67.38193359 58.72521484 -66.87890625 59.84765625 C-61.26484955 71.17289866 -51.86924973 78.22359568 -40.015625 82.2578125 C-27.60273343 84.38703113 -16.04110076 82.69956035 -5.28515625 76.015625 C4.26139146 69.09000969 9.96751157 59.52805351 12.7421875 48.078125 C14.58053178 36.2977147 11.86653866 25.41001336 4.88671875 15.72265625 C-0.3819538 9.44931443 -6.29597432 4.7367138 -13.875 1.625 C-14.58011719 1.27050781 -15.28523438 0.91601562 -16.01171875 0.55078125 C-34.19416952 -5.32812848 -51.1478991 2.27971226 -62.98828125 16.08984375 Z " fill="#0A948E" transform="translate(116.875,52.375)"/>
<path d="M0 0 C0 0.66 0 1.32 0 2 C0.8353125 2.37318359 0.8353125 2.37318359 1.6875 2.75390625 C10.08467768 7.27873679 17.21545066 14.94681143 24.1953125 21.40625 C26.63614737 23.66351233 29.08371448 25.90952869 31.5625 28.125 C32.16191406 28.66382813 32.76132813 29.20265625 33.37890625 29.7578125 C35.09543297 31.21292728 35.09543297 31.21292728 38 32 C38.9375 34.5 38.9375 34.5 39 38 C37.01866247 41.01610135 34.54423071 43.45576929 32 46 C31.154375 46.99 30.30875 47.98 29.4375 49 C27 51 27 51 23.6875 51.3125 C22.800625 51.209375 21.91375 51.10625 21 51 C21 50.34 21 49.68 21 49 C20.34 49 19.68 49 19 49 C17.64902626 47.48848454 16.37072655 45.91186687 15.125 44.3125 C11.55761917 39.84322096 7.85369538 35.60294155 3.9375 31.4375 C-0.4620493 26.75165957 -4.56879855 21.9395462 -8.4765625 16.828125 C-9.88384008 14.89107211 -9.88384008 14.89107211 -12 14 C-12.5 11.5 -12.5 11.5 -12 8 C-8.55609933 3.42453196 -5.90406979 0 0 0 Z " fill="#0D948C" transform="translate(140,133)"/>
<path d="M0 0 C11.28216193 5.66094393 20.01183819 14.57286014 24.3125 26.4375 C24.725 27.55125 25.1375 28.665 25.5625 29.8125 C28.15924761 42.3634468 25.00201208 54.46940139 18.0625 65.15625 C11.72609927 73.41620096 2.6916079 79.57744482 -7.6875 81.4375 C-20.42168252 82.25259458 -31.48705503 81.60817632 -41.78125 73.19140625 C-50.67729387 65.00631671 -57.1102001 56.16324601 -57.92578125 43.8359375 C-58.26712336 31.43691593 -56.06728045 21.97381189 -47.6875 12.4375 C-47.18605469 11.83164063 -46.68460938 11.22578125 -46.16796875 10.6015625 C-35.28384998 -1.52721219 -15.27456214 -5.67340879 0 0 Z M-47.75 16.75 C-54.80763759 26.53962633 -55.87122075 36.63008868 -54.6875 48.4375 C-52.12105431 59.44191833 -45.02255001 67.9763726 -35.5625 73.9375 C-26.08116802 79.42837239 -14.2744806 80.08085378 -3.67578125 77.78515625 C6.80653641 73.9509647 14.83237887 66.37012224 19.7890625 56.49609375 C24.56073568 45.41994735 24.82268822 35.45626941 20.5703125 24.15625 C15.55045995 13.30588549 7.06926036 6.70688614 -3.85546875 2.3828125 C-21.22447105 -3.41484068 -36.15988748 3.75502535 -47.75 16.75 Z " fill="#F0C913" transform="translate(103.6875,53.5625)"/>
<path d="M0 0 C1.32 0.33 2.64 0.66 4 1 C3.59591062 3.72760329 3.00288429 4.99661842 1.1875 7.125 C-3.58626833 13.39909552 -5.75967556 20.24113266 -5.45703125 28.12109375 C-4.26411902 35.63542119 -1.36228824 41.69549504 4 47 C3.75 49.25 3.75 49.25 3 51 C0.35528007 50.63442316 -0.7707652 50.25109337 -2.59765625 48.25 C-9.35487274 37.87091547 -11.53384264 28.68669994 -9.56640625 16.26171875 C-7.91999179 9.6862871 -4.43796991 5.03375218 0 0 Z " fill="#99E7DC" transform="translate(63,68)"/>
<path d="M0 0 C4.28167533 0.03664772 6.8078343 0.53799066 10.25 3.25 C11.24 3.91 12.23 4.57 13.25 5.25 C14.57 4.26 15.89 3.27 17.25 2.25 C16.87875 3.3225 16.5075 4.395 16.125 5.5 C14.93508268 9.06629347 14.93508268 9.06629347 16.125 11.6875 C16.681875 12.4609375 16.681875 12.4609375 17.25 13.25 C14.25 12.25 14.25 12.25 12.25 10.25 C10.93 11.57 9.61 12.89 8.25 14.25 C7.26 13.92 6.27 13.59 5.25 13.25 C3.35529184 13.1814505 1.4583166 13.16519628 -0.4375 13.1875 C-1.43136719 13.19652344 -2.42523438 13.20554687 -3.44921875 13.21484375 C-4.20847656 13.22644531 -4.96773438 13.23804687 -5.75 13.25 C-5.77686553 11.27090602 -5.79633375 9.29171029 -5.8125 7.3125 C-5.82410156 6.21035156 -5.83570312 5.10820313 -5.84765625 3.97265625 C-5.68658469 -0.51801875 -4.05713857 0.07202021 0 0 Z " fill="#EFF2F8" transform="translate(84.75,73.75)"/>
<path d="M0 0 C0.66 0 1.32 0 2 0 C2.33 3.3 2.66 6.6 3 10 C4.32 10.33 5.64 10.66 7 11 C8.93395001 8.09907498 9.30131941 7.10325263 9.625 3.8125 C9.74875 2.554375 9.8725 1.29625 10 0 C16.93 0.495 16.93 0.495 24 1 C24 1.66 24 2.32 24 3 C22.68 3 21.36 3 20 3 C20 6.63 20 10.26 20 14 C17.89185433 9.78370866 17.82299645 7.60209225 18 3 C16.35 3 14.7 3 13 3 C12.7525 4.258125 12.505 5.51625 12.25 6.8125 C11.54274778 9.60194233 11.12122624 10.8620529 9.1875 13.0625 C6.30345297 14.29852015 4.90576173 14.14701121 2 13 C0.07821909 10.03176989 -0.22776483 7.74400407 -0.125 4.25 C-0.10695313 3.45078125 -0.08890625 2.6515625 -0.0703125 1.828125 C-0.04710938 1.22484375 -0.02390625 0.6215625 0 0 Z " fill="#3162B7" transform="translate(66,97)"/>
<path d="M0 0 C3 0.125 3 0.125 6 1 C7.375 3.0625 7.375 3.0625 8 5 C7.01 4.34 6.02 3.68 5 3 C3.68 3 2.36 3 1 3 C1 3.66 1 4.32 1 5 C5.455 6.98 5.455 6.98 10 9 C9 13 9 13 8 14 C6.54332311 14.07254367 5.0833275 14.08373778 3.625 14.0625 C2.43777344 14.04896484 2.43777344 14.04896484 1.2265625 14.03515625 C0.49179688 14.02355469 -0.24296875 14.01195313 -1 14 C-1.99 14 -2.98 14 -4 14 C-4.33 14 -4.66 14 -5 14 C-5 9.71 -5 5.42 -5 1 C-4.34 1 -3.68 1 -3 1 C-2.67 3.97 -2.34 6.94 -2 10 C1.3 10.66 4.6 11.32 8 12 C7.2050157 9.8418352 7.2050157 9.8418352 5.1875 9.32421875 C4.465625 9.11410156 3.74375 8.90398437 3 8.6875 C0.8203125 7.921875 0.8203125 7.921875 -1 7 C-2.125 4.4375 -2.125 4.4375 -2 2 C-1.34 1.34 -0.68 0.68 0 0 Z " fill="#1F51B0" transform="translate(106,97)"/>
<path d="M0 0 C1.37478516 0.01740234 1.37478516 0.01740234 2.77734375 0.03515625 C3.69644531 0.04417969 4.61554688 0.05320312 5.5625 0.0625 C6.27277344 0.07410156 6.98304687 0.08570312 7.71484375 0.09765625 C7.71484375 0.75765625 7.71484375 1.41765625 7.71484375 2.09765625 C4.74484375 2.09765625 1.77484375 2.09765625 -1.28515625 2.09765625 C-1.28515625 3.08765625 -1.28515625 4.07765625 -1.28515625 5.09765625 C1.35484375 5.09765625 3.99484375 5.09765625 6.71484375 5.09765625 C6.71484375 5.75765625 6.71484375 6.41765625 6.71484375 7.09765625 C4.07484375 7.09765625 1.43484375 7.09765625 -1.28515625 7.09765625 C-1.28515625 8.41765625 -1.28515625 9.73765625 -1.28515625 11.09765625 C1.68484375 11.09765625 4.65484375 11.09765625 7.71484375 11.09765625 C7.71484375 11.75765625 7.71484375 12.41765625 7.71484375 13.09765625 C4.08484375 13.09765625 0.45484375 13.09765625 -3.28515625 13.09765625 C-3.31202178 11.11856227 -3.33149 9.13936654 -3.34765625 7.16015625 C-3.35925781 6.05800781 -3.37085937 4.95585938 -3.3828125 3.8203125 C-3.25076835 0.13892172 -3.25076835 0.13892172 0 0 Z " fill="#1F52B0" transform="translate(82.28515625,73.90234375)"/>
<path d="M0 0 C-0.47645208 4.28806873 -1.65902484 6.26647487 -5 9 C-5.66 9 -6.32 9 -7 9 C-7.33 9.99 -7.66 10.98 -8 12 C-8.66 12 -9.32 12 -10 12 C-10 12.66 -10 13.32 -10 14 C-10.66 14 -11.32 14 -12 14 C-12.5 11.5 -12.5 11.5 -12 8 C-8.55609933 3.42453196 -5.90406979 0 0 0 Z " fill="#4CA272" transform="translate(140,133)"/>
<path d="M0 0 C3.36720387 1.39332574 4.9859524 2.9789286 7 6 C5.35 7.65 3.7 9.3 2 11 C-1.36720387 9.60667426 -2.9859524 8.0210714 -5 5 C-3.35 3.35 -1.7 1.7 0 0 Z " fill="#F3C907" transform="translate(128,129)"/>
<path d="M0 0 C4.38889325 0.66498383 7.9811485 2.18757677 12 4 C11.67 5.32 11.34 6.64 11 8 C2.42857143 6 2.42857143 6 -1 4 C-0.67 2.68 -0.34 1.36 0 0 Z " fill="#9BE8DD" transform="translate(71,120)"/>
<path d="M0 0 C-1.424663 4.43406351 -3.61839306 7.07973897 -6.875 10.375 C-7.73867187 11.26960937 -8.60234375 12.16421875 -9.4921875 13.0859375 C-10.31976563 13.71757812 -11.14734375 14.34921875 -12 15 C-14.15673828 14.61962891 -14.15673828 14.61962891 -16 14 C-13.71643754 11.65861457 -11.42186626 9.32833018 -9.125 7 C-8.47402344 6.33226562 -7.82304687 5.66453125 -7.15234375 4.9765625 C-6.52714844 4.34492188 -5.90195313 3.71328125 -5.2578125 3.0625 C-4.6817627 2.47597656 -4.10571289 1.88945312 -3.51220703 1.28515625 C-2 0 -2 0 0 0 Z " fill="#1A9995" transform="translate(179,169)"/>
<path d="M0 0 C0.598125 0.33 1.19625 0.66 1.8125 1 C4.05386471 2.20787988 4.05386471 2.20787988 7 2 C7.99 1.34 8.98 0.68 10 0 C9.62875 1.0725 9.2575 2.145 8.875 3.25 C7.68508268 6.81629347 7.68508268 6.81629347 8.875 9.4375 C9.431875 10.2109375 9.431875 10.2109375 10 11 C7 10 7 10 5 8 C4.071875 8.99 4.071875 8.99 3.125 10 C1 12 1 12 -1 12 C0.33333333 9.33333333 1.66666667 6.66666667 3 4 C2.01 2.68 1.02 1.36 0 0 Z " fill="#194DAF" transform="translate(92,76)"/>
<path d="M0 0 C3.3 0 6.6 0 10 0 C10.33 0.66 10.66 1.32 11 2 C9.68 2 8.36 2 7 2 C7 5.96 7 9.92 7 14 C6.34 13.67 5.68 13.34 5 13 C5 9.37 5 5.74 5 2 C3.35 2 1.7 2 0 2 C0 1.34 0 0.68 0 0 Z " fill="#1E4EB0" transform="translate(104,74)"/>
<path d="M0 0 C0.33 0.598125 0.66 1.19625 1 1.8125 C3.82220057 4.89928188 7.07668579 5.76988723 11 7 C11 7.66 11 8.32 11 9 C9.741875 9.020625 8.48375 9.04125 7.1875 9.0625 C6.47980469 9.07410156 5.77210937 9.08570312 5.04296875 9.09765625 C3 9 3 9 0 8 C0 5.36 0 2.72 0 0 Z " fill="#EBEFF7" transform="translate(103,100)"/>
<path d="M0 0 C0.66 0 1.32 0 2 0 C2 3.63 2 7.26 2 11 C4.31 11 6.62 11 9 11 C9 11.66 9 12.32 9 13 C6.03 13 3.06 13 0 13 C0 8.71 0 4.42 0 0 Z " fill="#2C5AB5" transform="translate(91,98)"/>
<path d="M0 0 C3.63 0 7.26 0 11 0 C11 0.66 11 1.32 11 2 C9.68 2 8.36 2 7 2 C7 5.63 7 9.26 7 13 C4.89185433 8.78370866 4.82299645 6.60209225 5 2 C3.35 2 1.7 2 0 2 C0 1.34 0 0.68 0 0 Z " fill="#114BAE" transform="translate(79,98)"/>
<path d="M0 0 C3.3 0 6.6 0 10 0 C10.33 0.66 10.66 1.32 11 2 C9.68 2 8.36 2 7 2 C7 5.96 7 9.92 7 14 C6.67 14 6.34 14 6 14 C5.01751476 9.9472484 4.91840426 6.16138263 5 2 C3.35 2 1.7 2 0 2 C0 1.34 0 0.68 0 0 Z " fill="#1447AD" transform="translate(67,74)"/>
<path d="M0 0 C0.33 0.66 0.66 1.32 1 2 C0.0919838 3.13199353 -0.82683826 4.25532363 -1.75 5.375 C-2.26046875 6.00148438 -2.7709375 6.62796875 -3.296875 7.2734375 C-5.08199481 9.08312318 -6.67949644 10.00117455 -9 11 C-7.59155282 7.78475695 -5.89655214 5.67816132 -3.375 3.25 C-2.74335937 2.63640625 -2.11171875 2.0228125 -1.4609375 1.390625 C-0.73777344 0.70226562 -0.73777344 0.70226562 0 0 Z " fill="#ECC70D" transform="translate(120,117)"/>
<path d="M0 0 C0.66 0 1.32 0 2 0 C2.33 3.63 2.66 7.26 3 11 C2.01 11.66 1.02 12.32 0 13 C0 8.71 0 4.42 0 0 Z " fill="#466BBA" transform="translate(101,98)"/>
<path d="M0 0 C1.62490954 -0.02698189 3.24994633 -0.04638757 4.875 -0.0625 C5.77992187 -0.07410156 6.68484375 -0.08570313 7.6171875 -0.09765625 C10 0 10 0 12 1 C12 1.66 12 2.32 12 3 C7.71 2.67 3.42 2.34 -1 2 C-0.67 1.34 -0.34 0.68 0 0 Z " fill="#FBCB05" transform="translate(83,52)"/>
<path d="M0 0 C2.875 0.25 2.875 0.25 6 1 C7.375 3.0625 7.375 3.0625 8 5 C7.01 4.34 6.02 3.68 5 3 C3.68 3 2.36 3 1 3 C0.34 3.66 -0.32 4.32 -1 5 C-0.67 3.35 -0.34 1.7 0 0 Z " fill="#2B5BB5" transform="translate(106,97)"/>
</svg>
